# xmcd CD database file
#
# Track frame offsets:
#	180
#	10020
#	23512
#	37087
#	54563
#	70835
#	85917
#	99815
#	117053
#	136632
#	148561
#	165796
#
# Disc length: 2371 seconds
#
# Revision: 0
# Processed by: cddbd v1.5.2PL0 Copyright (c) Steve Scherf et al.
# Submitted via: CDex 1.70beta2
#
DISCID=8309410c
DTITLE=Martha DeKnight - Country 1st
DYEAR=1996
DGENRE=Country
TTITLE0=I Know What You've Been Up To
TTITLE1=Love's Gonna Tell On You
TTITLE2=I Ain't Ready To Grow Up
TTITLE3=Are You Breaking A Heart Over Me
TTITLE4=You're Playing With A Heartache
TTITLE5=Just Plain Poison
TTITLE6=Hotdog
TTITLE7=He Loved Me Too Much
TTITLE8=Wait Till I Get You In My Dreams
TTITLE9=Ain't We Got Love
TTITLE10=Hey Lady
TTITLE11=Travelin' Band
EXTD=YEAR: 1996
EXTT0=
EXTT1=
EXTT2=
EXTT3=
EXTT4=
EXTT5=
EXTT6=
EXTT7=
EXTT8=
EXTT9=
EXTT10=
EXTT11=
PLAYORDER=
